<?xml version="1.0" encoding="UTF-8"?>
<svg version="1.1" xmlns="http://www.w3.org/2000/svg" width="500" height="500">
<path d="M0 0 C165 0 330 0 500 0 C500 165 500 330 500 500 C335 500 170 500 0 500 C0 335 0 170 0 0 Z " fill="#000000" transform="translate(0,0)"/>
<path d="M0 0 C6.6 0 13.2 0 20 0 C21.98 12.54 23.96 25.08 26 38 C27.93401241 25.86899213 27.93401241 25.86899213 29.85913086 13.73657227 C30.10237806 12.22146491 30.34592801 10.70640612 30.58984375 9.19140625 C30.71427856 8.39762573 30.83871338 7.60384521 30.96691895 6.78601074 C31.8859282 1.1140718 31.8859282 1.1140718 33 0 C34.4887186 -0.08669432 35.981445 -0.10703494 37.47265625 -0.09765625 C38.37177734 -0.09443359 39.27089844 -0.09121094 40.19726562 -0.08789062 C41.61555664 -0.07532227 41.61555664 -0.07532227 43.0625 -0.0625 C44.01189453 -0.05798828 44.96128906 -0.05347656 45.93945312 -0.04882812 C48.29303065 -0.0370011 50.64648477 -0.02052025 53 0 C53.69847982 3.94612233 54.39201848 7.89308043 55.08129883 11.84082031 C55.42993923 13.83182228 55.78231129 15.82216965 56.13476562 17.8125 C57.36324864 24.86292426 58.44537665 31.8625132 59 39 C59.11069824 38.23969482 59.22139648 37.47938965 59.33544922 36.69604492 C59.84665084 33.19290416 60.36080829 29.69020308 60.875 26.1875 C61.04902344 24.99189453 61.22304688 23.79628906 61.40234375 22.56445312 C62.46445075 15.34605928 63.65209238 8.17062568 65 1 C71.27 1 77.54 1 84 1 C82.87496007 11.12535941 82.87496007 11.12535941 82.07617188 14.8137207 C81.81084656 16.05464226 81.81084656 16.05464226 81.54016113 17.32063293 C81.35159546 18.18033188 81.16302979 19.04003082 80.96875 19.92578125 C80.77277222 20.83579391 80.57679443 21.74580658 80.37487793 22.68339539 C79.75410349 25.56068737 79.12707929 28.43657631 78.5 31.3125 C78.07903064 33.2609821 77.65845415 35.20954912 77.23828125 37.15820312 C76.46909774 40.71705505 75.69924104 44.27575161 74.92382812 47.83325195 C74.76918091 48.54334915 74.61453369 49.25344635 74.4552002 49.98506165 C74.00063791 51.99717632 73.50030769 53.99876924 73 56 C65.08 56 57.16 56 49 56 C45.82729089 44.81997742 44.43354977 33.51141999 43 22 C41.72716241 24.54567518 41.48506785 26.85271884 41.0625 29.671875 C40.88976562 30.81140625 40.71703125 31.9509375 40.5390625 33.125 C40.36117187 34.32125 40.18328125 35.5175 40 36.75 C39.64611132 39.09900023 39.2919534 41.44795992 38.9375 43.796875 C38.70353516 45.36453613 38.70353516 45.36453613 38.46484375 46.96386719 C38.00304894 49.98008582 37.50164134 52.99015196 37 56 C29.08 56 21.16 56 13 56 C11.70384474 51.4634566 10.48690924 47.0048183 9.4140625 42.421875 C8.98009155 40.56876709 8.98009155 40.56876709 8.53735352 38.67822266 C8.23305562 37.36885694 7.92894097 36.05944862 7.625 34.75 C7.47070526 34.08780457 7.31641052 33.42560913 7.15744019 32.74334717 C4.62275543 21.85803845 2.24371237 10.94931638 0 0 Z " fill="#F8F8F8" transform="translate(278,226)"/>
<path d="M0 0 C5.40375 -0.0825 10.8075 -0.165 16.375 -0.25 C18.05899902 -0.28641602 19.74299805 -0.32283203 21.47802734 -0.36035156 C31.19615736 -0.48218616 38.628206 0.45690183 46.9375 5.9375 C53.51819818 12.51819818 53.22993416 19.4760034 53.3125 28.25 C53.34150391 29.26191406 53.37050781 30.27382813 53.40039062 31.31640625 C53.46854539 39.40061046 51.74566549 44.46985865 46.8125 50.8125 C38.06413398 57.61678468 27.39871523 56.35120549 16.9375 56.1875 C11.348125 56.125625 5.75875 56.06375 0 56 C0 37.52 0 19.04 0 0 Z " fill="#F8F8F8" transform="translate(227,226)"/>
<path d="M0 0 C5.94 0 11.88 0 18 0 C18 18.48 18 36.96 18 56 C11.07 56 4.14 56 -3 56 C-4.94145664 52.48129797 -6.87826649 48.9601698 -8.8125 45.4375 C-9.35970703 44.44685547 -9.90691406 43.45621094 -10.47070312 42.43554688 C-11.00244141 41.46552734 -11.53417969 40.49550781 -12.08203125 39.49609375 C-12.56905518 38.61107178 -13.0560791 37.7260498 -13.55786133 36.81420898 C-15.19551037 33.61847842 -16.5854738 30.30056114 -18 27 C-18.33 36.57 -18.66 46.14 -19 56 C-24.61 56 -30.22 56 -36 56 C-36 37.85 -36 19.7 -36 1 C-29.07 1 -22.14 1 -15 1 C-13.04080742 4.58286594 -11.08261214 8.16627068 -9.125 11.75 C-8.56941406 12.76578125 -8.01382813 13.7815625 -7.44140625 14.828125 C-6.63896484 16.29765625 -6.63896484 16.29765625 -5.8203125 17.796875 C-5.32805176 18.69760742 -4.83579102 19.59833984 -4.32861328 20.52636719 C-3.18048846 22.66396378 -2.08512762 24.82974475 -1 27 C-0.67 18.09 -0.34 9.18 0 0 Z " fill="#FCFCFC" transform="translate(206,226)"/>
<path d="M0 0 C5.40375 -0.0825 10.8075 -0.165 16.375 -0.25 C18.05899902 -0.28641602 19.74299805 -0.32283203 21.47802734 -0.36035156 C30.29795639 -0.47260229 39.07944255 -0.56003649 45.95263672 5.80957031 C51.26150953 11.59023558 51.34060925 16.79637686 51.28515625 24.47265625 C50.8158165 30.27832462 48.6806692 33.77911569 45.25 38.3125 C37.55347804 44.08489147 29.12687137 43.32086657 20 43 C20 47.29 20 51.58 20 56 C13.4 56 6.8 56 0 56 C0 37.52 0 19.04 0 0 Z " fill="#F7F7F7" transform="translate(73,226)"/>
<path d="M0 0 C2.85995311 2.22212184 5.1612688 4.32565768 6.19140625 7.828125 C6.21649441 10.16132345 6.21847326 12.49494866 6.19140625 14.828125 C3.41895611 14.96300095 0.65303537 15.06213307 -2.12109375 15.140625 C-2.90677734 15.18251953 -3.69246094 15.22441406 -4.50195312 15.26757812 C-6.71048872 15.31456824 -8.65176316 15.31327512 -10.80859375 14.828125 C-12.65234375 12.328125 -12.65234375 12.328125 -13.80859375 9.828125 C-16.93494584 9.41065892 -16.93494584 9.41065892 -19.80859375 9.828125 C-20.46859375 11.808125 -21.12859375 13.788125 -21.80859375 15.828125 C-20.98617188 15.99828125 -20.16375 16.1684375 -19.31640625 16.34375 C1.1575261 20.78843739 1.1575261 20.78843739 7.19140625 29.828125 C8.94871453 33.34274156 8.72974104 36.99248963 8.19140625 40.828125 C5.92442091 46.40764496 2.5600804 50.03194055 -2.80859375 52.828125 C-7.36679853 54.06975665 -11.93018878 54.04713636 -16.62109375 54.078125 C-17.39001953 54.09875 -18.15894531 54.119375 -18.95117188 54.140625 C-25.73949078 54.18645331 -31.24554394 52.93552151 -36.62109375 48.515625 C-40.28789698 44.01069532 -41.99479357 40.62971932 -41.80859375 34.828125 C-38.86957026 34.69330741 -35.93669816 34.59413084 -32.99609375 34.515625 C-32.16271484 34.47373047 -31.32933594 34.43183594 -30.47070312 34.38867188 C-28.14878793 34.34204707 -26.08092921 34.34092749 -23.80859375 34.828125 C-21.99609375 37.328125 -21.99609375 37.328125 -20.80859375 39.828125 C-18.76574314 40.42837021 -18.76574314 40.42837021 -16.62109375 40.140625 C-14.73390625 39.9859375 -14.73390625 39.9859375 -12.80859375 39.828125 C-12.47859375 38.178125 -12.14859375 36.528125 -11.80859375 34.828125 C-16.32433905 32.3572455 -20.42937434 30.56719985 -25.43359375 29.328125 C-31.09208035 27.87241475 -34.78069734 25.58919293 -39.18359375 21.765625 C-41.70273842 17.21178655 -41.52724559 12.91108956 -40.80859375 7.828125 C-38.34962657 2.29544885 -34.12101714 -0.56754244 -28.80859375 -3.171875 C-19.83930347 -6.21263652 -7.97330963 -5.16629134 0 0 Z " fill="#F9F9F9" transform="translate(424.80859375,229.171875)"/>
<path d="M0 0 C5.77148707 4.66203966 6.01792784 7.14342273 7 15 C1.39 15 -4.22 15 -10 15 C-10.66 13.68 -11.32 12.36 -12 11 C-14.70879335 9.64560332 -17.00933268 9.93498549 -20 10 C-20.33 11.65 -20.66 13.3 -21 15 C-17.58459912 17.27693392 -14.86608952 17.83083999 -10.875 18.75 C-4.05056119 20.44563521 3.16231587 22.66108942 7.2109375 28.8515625 C9.15513302 34.14516417 8.59793247 40.17298411 6.875 45.4375 C3.62064132 49.88512353 -0.79969207 52.38824893 -6 54 C-9.43995758 54.34189639 -12.85758222 54.37017806 -16.3125 54.375 C-17.22451172 54.39949219 -18.13652344 54.42398438 -19.07617188 54.44921875 C-26.91801415 54.4829471 -32.14336899 52.61351347 -37.9375 47.3125 C-40.61788912 43.00763262 -40.77135547 40.03017956 -41 35 C-35.06 35 -29.12 35 -23 35 C-22.34 36.65 -21.68 38.3 -21 40 C-17.7 40 -14.4 40 -11 40 C-11.33 38.02 -11.66 36.04 -12 34 C-13.85625 33.38125 -13.85625 33.38125 -15.75 32.75 C-16.56597656 32.47414063 -17.38195312 32.19828125 -18.22265625 31.9140625 C-20.15900667 31.27678261 -22.10542542 30.66964298 -24.05859375 30.0859375 C-30.09717882 28.23139077 -34.61178584 26.62541493 -39 22 C-41.00167649 15.99497052 -40.99084274 9.3119664 -38.5 3.5 C-28.7873688 -6.2126312 -11.45472556 -7.12504948 0 0 Z " fill="#FAFAFA" transform="translate(64,229)"/>
<path d="M0 0 C14.19 0 28.38 0 43 0 C43 4.62 43 9.24 43 14 C35.08 14 27.16 14 19 14 C19 16.64 19 19.28 19 22 C25.93 22 32.86 22 40 22 C40 25.96 40 29.92 40 34 C33.07 34 26.14 34 19 34 C19 36.64 19 39.28 19 42 C26.92 42 34.84 42 43 42 C43 46.62 43 51.24 43 56 C28.81 56 14.62 56 0 56 C0 37.52 0 19.04 0 0 Z " fill="#FBFBFB" transform="translate(434,226)"/>
<path d="M0 0 C14.19 0 28.38 0 43 0 C43 4.62 43 9.24 43 14 C35.08 14 27.16 14 19 14 C19 16.64 19 19.28 19 22 C25.93 22 32.86 22 40 22 C40 25.96 40 29.92 40 34 C33.07 34 26.14 34 19 34 C19 36.64 19 39.28 19 42 C26.92 42 34.84 42 43 42 C43 46.62 43 51.24 43 56 C28.81 56 14.62 56 0 56 C0 37.52 0 19.04 0 0 Z " fill="#FBFBFB" transform="translate(125,226)"/>
<path d="M0 0 C6.27 0 12.54 0 19 0 C19 18.15 19 36.3 19 55 C12.73 55 6.46 55 0 55 C0 36.85 0 18.7 0 0 Z " fill="#FDFDFD" transform="translate(363,227)"/>
<path d="M0 0 C7.26 0 14.52 0 22 0 C22 0.33 22 0.66 22 1 C15.07 1 8.14 1 1 1 C1 19.15 1 37.3 1 56 C0.34 56 -0.32 56 -1 56 C-1 51.38 -1 46.76 -1 42 C-8.92 42 -16.84 42 -25 42 C-25 39.36 -25 36.72 -25 34 C-18.07 34 -11.14 34 -4 34 C-4 30.04 -4 26.08 -4 22 C-10.93 22 -17.86 22 -25 22 C-25 19.36 -25 16.72 -25 14 C-16.75 14 -8.5 14 0 14 C0 9.38 0 4.76 0 0 Z " fill="#181818" transform="translate(169,226)"/>
<path d="M0 0 C10 0 10 0 12.59765625 1.47265625 C14.59750569 5.07684173 14.5436449 8.4279619 14.4375 12.4375 C14.44458984 13.18837891 14.45167969 13.93925781 14.45898438 14.71289062 C14.40687157 19.27075698 13.91886318 22.29611249 11 26 C9 27 9 27 0 27 C0 18.09 0 9.18 0 0 Z " fill="#010101" transform="translate(247,241)"/>
<path d="M0 0 C0.33 0 0.66 0 1 0 C1 18.48 1 36.96 1 56 C0.67 56 0.34 56 0 56 C-0.33 53.69 -0.66 51.38 -1 49 C-1.99 49.495 -1.99 49.495 -3 50 C-2.67 49.195625 -2.34 48.39125 -2 47.5625 C-0.36912092 41.75249327 0.07373807 37.07078057 -2.75 31.625 C-6.31524423 27.4655484 -9.47170572 25.63632762 -14.6875 24 C-16.26337891 23.49726563 -16.26337891 23.49726563 -17.87109375 22.984375 C-18.90363281 22.65953125 -19.93617188 22.3346875 -21 22 C-22.75122419 21.42035216 -24.50139052 20.83748845 -26.25 20.25 C-27.4875 19.8375 -28.725 19.425 -30 19 C-30.125 16.625 -30.125 16.625 -30 14 C-28 12 -28 12 -25.0625 11.6875 C-22 12 -22 12 -20.125 13.3125 C-19 15 -19 15 -19 18 C-13.39 18 -7.78 18 -2 18 C-1.03813069 14.15252277 -0.69340973 10.69832148 -0.4375 6.75 C-0.35371094 5.48671875 -0.26992188 4.2234375 -0.18359375 2.921875 C-0.09271484 1.47554687 -0.09271484 1.47554687 0 0 Z " fill="#111111" transform="translate(433,226)"/>
<path d="M0 0 C0.33 0 0.66 0 1 0 C1.07476562 0.59167969 1.14953125 1.18335938 1.2265625 1.79296875 C1.94939781 6.13706723 2.57066999 8.51831267 5.5625 11.875 C9.35451279 14.5587192 13.59506043 15.68672609 18 17 C19.98448479 17.67199485 21.96368576 18.35978079 23.9375 19.0625 C25.31228516 19.54396484 25.31228516 19.54396484 26.71484375 20.03515625 C29 21 29 21 31 23 C30.44444444 27.55555556 30.44444444 27.55555556 29 29 C21.71608392 29.46993007 21.71608392 29.46993007 19 27.6875 C18 26 18 26 18 23 C16.71222656 23.01160156 15.42445313 23.02320313 14.09765625 23.03515625 C12.41927228 23.0445327 10.74088674 23.05363305 9.0625 23.0625 C7.78729492 23.07506836 7.78729492 23.07506836 6.48632812 23.08789062 C5.67744141 23.09111328 4.86855469 23.09433594 4.03515625 23.09765625 C3.2862915 23.10289307 2.53742676 23.10812988 1.76586914 23.11352539 C0 23 0 23 -1 22 C-1.09883336 20.53521494 -1.13079289 19.06577042 -1.1328125 17.59765625 C-1.13474609 16.26250977 -1.13474609 16.26250977 -1.13671875 14.90039062 C-1.13285156 13.96388672 -1.12898438 13.02738281 -1.125 12.0625 C-1.12886719 11.12986328 -1.13273437 10.19722656 -1.13671875 9.23632812 C-1.13542969 8.34494141 -1.13414062 7.45355469 -1.1328125 6.53515625 C-1.13168457 5.714104 -1.13055664 4.89305176 -1.12939453 4.04711914 C-1 2 -1 2 0 0 Z " fill="#060606" transform="translate(383,241)"/>
<path d="M0 0 C3.1875 0.3125 3.1875 0.3125 5.5625 2.1875 C7.1875 4.3125 7.1875 4.3125 7.1875 6.3125 C8.47527344 6.22871094 9.76304688 6.14492187 11.08984375 6.05859375 C12.76821227 5.95545379 14.44659864 5.85260416 16.125 5.75 C16.97513672 5.69392578 17.82527344 5.63785156 18.70117188 5.58007812 C19.51005859 5.53173828 20.31894531 5.48339844 21.15234375 5.43359375 C21.9012085 5.3864624 22.65007324 5.33933105 23.42163086 5.29077148 C25.1875 5.3125 25.1875 5.3125 26.1875 6.3125 C26.27517112 8.38512076 26.29445873 10.46070294 26.28515625 12.53515625 C26.28193359 13.79521484 26.27871094 15.05527344 26.27539062 16.35351562 C26.26703403 17.69401109 26.25856907 19.03450588 26.25 20.375 C26.2449866 21.71939942 26.24042342 23.0638006 26.23632812 24.40820312 C26.22449488 27.70967941 26.20800971 31.01106803 26.1875 34.3125 C25.1975 34.8075 25.1975 34.8075 24.1875 35.3125 C24.22230469 34.43207031 24.25710937 33.55164063 24.29296875 32.64453125 C24.32003906 31.48308594 24.34710938 30.32164062 24.375 29.125 C24.40980469 27.97644531 24.44460937 26.82789063 24.48046875 25.64453125 C24.15529333 21.94620283 23.46902316 20.21256944 21.1875 17.3125 C15.017955 12.8398829 7.36524741 11.06442461 0.09375 9.20703125 C-2.8125 8.3125 -2.8125 8.3125 -4.8125 6.3125 C-4.09821429 0.45535714 -4.09821429 0.45535714 0 0 Z " fill="#111111" transform="translate(46.8125,237.6875)"/>
<path d="M0 0 C1.60875 -0.04125 3.2175 -0.0825 4.875 -0.125 C5.77992187 -0.14820313 6.68484375 -0.17140625 7.6171875 -0.1953125 C10 0 10 0 12 2 C12.265625 4.09375 12.265625 4.09375 12.25 6.5 C12.25515625 7.2940625 12.2603125 8.088125 12.265625 8.90625 C12 11 12 11 10 13 C7.6171875 13.1953125 7.6171875 13.1953125 4.875 13.125 C2.461875 13.063125 2.461875 13.063125 0 13 C0 8.71 0 4.42 0 0 Z " fill="#020202" transform="translate(93,241)"/>
<path d="M0 0 C0.33 0 0.66 0 1 0 C1 18.48 1 36.96 1 56 C0.67 56 0.34 56 0 56 C-0.33 48.74 -0.66 41.48 -1 34 C-1.99 34.495 -1.99 34.495 -3 35 C-2.67128906 34.00355469 -2.34257813 33.00710938 -2.00390625 31.98046875 C-0.87938027 28.03620626 -0.83530411 24.42077461 -0.9375 20.3125 C-1.05247567 13.48422254 -0.7209322 6.79736076 0 0 Z " fill="#262626" transform="translate(124,226)"/>
<path d="M0 0 C0.33 0 0.66 0 1 0 C1 18.48 1 36.96 1 56 C0.67 56 0.34 56 0 56 C-0.33 53.69 -0.66 51.38 -1 49 C-1.99 49.495 -1.99 49.495 -3 50 C-2.67854004 49.22060059 -2.35708008 48.44120117 -2.02587891 47.63818359 C-0.70806727 42.96468788 -0.64587204 38.62212701 -0.5859375 33.7890625 C-0.56657135 32.82092621 -0.5472052 31.85278992 -0.5272522 30.85531616 C-0.4677167 27.7786323 -0.4211753 24.70191049 -0.375 21.625 C-0.33679627 19.53253623 -0.29774315 17.44008778 -0.2578125 15.34765625 C-0.16203655 10.23189604 -0.07790958 5.11606224 0 0 Z " fill="#181818" transform="translate(433,226)"/>
</svg>
